<svg width="32" height="32" viewBox="0 0 151 159" fill="none" xmlns="http://www.w3.org/2000/svg">
  <path d="M76.5776 0.000151099L93.6055 71.3228L78.8642 71.3228L68.1123 22.331L55.0737 71.3228L37.9485 71.3227L25.4452 21.504L14.4987 71.3227L0.00062561 71.3227L17.3204 0.000145919L32.5969 0.000147254L46.8031 53.3218L60.9605 0.000149734L76.5776 0.000151099Z" fill="#0023AF"/>
  <path d="M97.6055 43.5917C97.6055 39.0509 98.7244 34.6561 100.962 30.4072C103.2 26.1584 106.363 22.915 110.449 20.677C114.569 18.439 119.158 17.3201 124.218 17.3201C132.034 17.3201 138.44 19.8661 143.435 24.9583C148.43 30.018 150.927 36.4238 150.927 44.1755C150.927 51.9921 148.397 58.4789 143.338 63.636C138.31 68.7606 131.969 71.3229 124.315 71.3229C119.58 71.3229 115.055 70.2525 110.741 68.1119C106.46 65.9712 103.2 62.8413 100.962 58.7222C98.7244 54.5706 97.6055 49.5271 97.6055 43.5917ZM111.617 44.3215C111.617 49.446 112.833 53.3706 115.266 56.095C117.698 58.8195 120.699 60.1817 124.266 60.1817C127.834 60.1817 130.818 58.8195 133.218 56.095C135.651 53.3706 136.867 49.4136 136.867 44.2242C136.867 39.1644 135.651 35.2723 133.218 32.5479C130.818 29.8234 127.834 28.4612 124.266 28.4612C120.699 28.4612 117.698 29.8234 115.266 32.5479C112.833 35.2723 111.617 39.1969 111.617 44.3215Z" fill="#0023AF"/>
  <path d="M104.138 99.9721L107.222 87.3228H120.893L117.813 99.9721H104.138ZM89.8398 158.645L102.355 106.978H116.026L103.511 158.645H89.8398Z" fill="#0023AF"/>
  <path d="M17.0299 158.645L0.00195312 87.3228H14.7433L25.4952 136.314L38.5337 87.3228H55.6589L68.1622 137.142L79.1087 87.3228H93.6068L76.287 158.645H61.0105L46.8044 105.324L32.6469 158.645H17.0299Z" fill="#0023AF"/>
</svg>
