<svg width="32" height="32" viewBox="0 0 207 207" fill="none" xmlns="http://www.w3.org/2000/svg">
  <g transform="translate(5.5, 0)">
    <path d="M168.199 27.5198V20.6597H175.613V27.5198H168.199ZM168.199 59.3404V31.3193H175.613V59.3404H168.199Z" fill="#0023AF"/>
    <path d="M123.186 59.3404L113.951 20.6597H121.946L127.777 47.2296L134.848 20.6597H144.136L150.917 47.6781L156.854 20.6597H164.716L155.323 59.3404H147.038L139.334 30.4222L131.656 59.3404H123.186Z" fill="#0023AF"/>
    <path d="M61.5308 20.7416L70.7656 59.4224L62.7709 59.4224L56.9398 32.8524L49.8685 59.4224L40.5809 59.4224L33.7999 32.4039L27.8633 59.4224L20.0005 59.4224L29.3936 20.7416L37.6786 20.7416L45.383 49.6598L53.0611 20.7416L61.5308 20.7416Z" fill="#0023AF"/>
    <path d="M74.0566 40.2375C74.0566 36.2973 74.6459 32.9903 75.8245 30.3166C76.704 28.3465 77.9001 26.5787 79.4128 25.0132C80.9432 23.4477 82.6142 22.2867 84.426 21.5303C86.8359 20.5101 89.6151 20 92.7638 20C98.463 20 103.019 21.7678 106.431 25.3034C109.861 28.8391 111.576 33.7555 111.576 40.0528C111.576 46.2973 109.879 51.1873 106.484 54.723C103.089 58.241 98.5509 60 92.8693 60C87.1173 60 82.5439 58.2498 79.149 54.7493C75.7541 51.2313 74.0566 46.394 74.0566 40.2375ZM82.1041 39.9736C82.1041 44.3536 83.1156 47.6781 85.1384 49.9472C87.1613 52.1988 89.7295 53.3245 92.8429 53.3245C95.9564 53.3245 98.5069 52.2076 100.495 49.9736C102.5 47.7221 103.503 44.3536 103.503 39.8681C103.503 35.4354 102.526 32.1284 100.574 29.9472C98.6389 27.7661 96.0619 26.6755 92.8429 26.6755C89.6239 26.6755 87.0294 27.7836 85.0593 30C83.0892 32.1988 82.1041 35.5233 82.1041 39.9736Z" fill="#0023AF"/>
    <path d="M44.3106 92.4624L50.7852 119.582L45.18 119.582L41.0918 100.953L36.1342 119.582L29.6226 119.582L24.8685 100.639L20.7062 119.582L15.1936 119.582L21.7792 92.4624L27.5878 92.4624L32.9894 112.737L38.3725 92.4624L44.3106 92.4624Z" fill="#0023AF"/>
    <path d="M52.8887 106.189C52.8887 103.426 53.3018 101.108 54.1281 99.233C54.7447 97.8518 55.5833 96.6123 56.6439 95.5148C57.7168 94.4172 58.8884 93.6032 60.1587 93.0729C61.8482 92.3576 63.7967 92 66.0043 92C70 92 73.1941 93.2394 75.5866 95.7182C77.9914 98.1971 79.1938 101.644 79.1938 106.059C79.1938 110.437 78.0038 113.865 75.6236 116.344C73.2434 118.811 70.0616 120.044 66.0783 120.044C62.0455 120.044 58.8391 118.817 56.4589 116.363C54.0788 113.896 52.8887 110.505 52.8887 106.189ZM58.5308 106.004C58.5308 109.074 59.2399 111.405 60.6581 112.996C62.0764 114.575 63.8769 115.364 66.0598 115.364C68.2426 115.364 70.0308 114.581 71.4244 113.015C72.8303 111.436 73.5332 109.074 73.5332 105.93C73.5332 102.822 72.8488 100.503 71.4799 98.974C70.1233 97.4448 68.3166 96.6802 66.0598 96.6802C63.8029 96.6802 61.9839 97.4571 60.6026 99.011C59.2214 100.553 58.5308 102.883 58.5308 106.004Z" fill="#0023AF"/>
    <path d="M21.6679 151.163L15.1934 124.044H20.7985L24.8867 142.672L29.8443 124.044H36.3559L41.1101 142.987L45.2723 124.044H50.7849L44.1993 151.163H38.3907L32.9891 130.888L27.606 151.163H21.6679Z" fill="#0023AF"/>
    <path d="M52.8887 128.854V124.044H58.0868V128.854H52.8887ZM52.8887 151.163V131.517H58.0868V151.163H52.8887Z" fill="#0023AF"/>
  </g>
</svg>
